<svg width="15" height="16" viewBox="0 0 15 16" fill="none" xmlns="http://www.w3.org/2000/svg">
<path d="M14.2222 4.06023V9.70979C14.2222 11.9521 12.3459 13.77 10.0316 13.77H9.6077L7.44314 15.8658C7.35837 15.948 7.2411 16 7.11111 16C6.99101 16 6.88222 15.9576 6.79886 15.8864L6.76213 15.8508L6.76071 15.8494L4.61452 13.77H4.18924C1.87633 13.77 0 11.9521 0 9.70979V4.06023C0 1.81793 1.87633 0 4.19065 0H10.0316C12.3459 0 14.2222 1.81793 14.2222 4.06023Z" fill="#FFD666"/>
<path d="M3.17104 7.82642C2.75847 7.82642 2.52332 8.28191 2.76269 8.6108C3.69344 9.89195 5.23249 10.7273 6.97148 10.7273C8.71048 10.7273 10.2481 9.89058 11.1789 8.6108C11.4182 8.28191 11.1831 7.82642 10.7705 7.82642H3.17104Z" fill="white"/>
<path d="M5.58741 5.88755H3.0979V4.67107C3.0979 3.99953 3.65551 3.45459 4.34265 3.45459C5.0298 3.45459 5.58741 3.99953 5.58741 4.67107V5.88755Z" fill="white"/>
<path d="M10.8451 5.88755H8.35559V4.67107C8.35559 3.99953 8.9132 3.45459 9.60035 3.45459C10.2875 3.45459 10.8451 3.99953 10.8451 4.67107V5.88755Z" fill="white"/>
</svg>
